<svg width="28" height="28" viewBox="0 0 28 28" fill="none" xmlns="http://www.w3.org/2000/svg">
<circle cx="14" cy="14" r="14" fill="#174894"/>
<path d="M19.8328 9.33337H8.16612C7.09224 9.33337 6.22168 10.1691 6.22168 11.2V19.9112C6.22168 20.9421 7.09224 21.7778 8.16612 21.7778H19.8328C20.9067 21.7778 21.7772 20.9421 21.7772 19.9112V11.2C21.7772 10.1691 20.9067 9.33337 19.8328 9.33337Z" stroke="white" stroke-width="1.16667" stroke-linecap="round" stroke-linejoin="round"/>
<path d="M16.9997 15.5555H10.9997C10.0792 15.5555 9.33301 16.4261 9.33301 17.5C9.33301 18.5739 10.0792 19.4444 10.9997 19.4444H16.9997C17.9201 19.4444 18.6663 18.5739 18.6663 17.5C18.6663 16.4261 17.9201 15.5555 16.9997 15.5555Z" stroke="white" stroke-width="1.16667" stroke-linecap="round" stroke-linejoin="round"/>
<path d="M15.5547 15.5555V19.4444" stroke="white" stroke-width="1.16667" stroke-linecap="round" stroke-linejoin="round"/>
<path d="M12.4443 15.5555V19.4444" stroke="white" stroke-width="1.16667" stroke-linecap="round" stroke-linejoin="round"/>
<path d="M13.999 9.33335V5.44446" stroke="white" stroke-width="1.16667" stroke-linecap="round" stroke-linejoin="round"/>
<path d="M10.4997 14C11.144 14 11.6663 13.4776 11.6663 12.8333C11.6663 12.189 11.144 11.6666 10.4997 11.6666C9.85534 11.6666 9.33301 12.189 9.33301 12.8333C9.33301 13.4776 9.85534 14 10.4997 14Z" fill="white"/>
<path d="M17.4997 14C18.144 14 18.6663 13.4776 18.6663 12.8333C18.6663 12.189 18.144 11.6666 17.4997 11.6666C16.8553 11.6666 16.333 12.189 16.333 12.8333C16.333 13.4776 16.8553 14 17.4997 14Z" fill="white"/>
</svg>
