<?xml version="1.0" encoding="UTF-8"?><svg id="Layer_1" xmlns="http://www.w3.org/2000/svg" viewBox="0 0 400 400"><defs><style>.cls-1{fill:#fff;}</style></defs><path class="cls-1" d="m120.5,202.75c-5.54-1.15-7.87-3.29-7.87-5.92s2.57-4.1,6.15-4.1c3.77,0,6.92,1.81,10.12,4.44l6.3-8.21c-4.39-3.91-10.69-6.73-17.56-6.73-10.74,0-17.85,6.11-17.85,14.41s5.34,13.65,16.08,15.84c6.39,1.29,8.49,3.1,8.49,6.06s-2.72,4.92-7.25,4.92c-4.96,0-9.5-2.39-12.55-5.87l-6.59,8.16c4.49,5.11,11.88,8.21,20.14,8.21,11.79,0,19.09-6.54,19.09-15.27s-5.25-13.6-16.7-15.94Z"/><rect class="cls-1" x="15.31" y="166" width="13.55" height="66.81"/><path class="cls-1" d="m158.37,215.68v-20.9h8.68l2.97-11.41h-11.64v-14.32l-13.12,5.66v41.78c0,11.6,6.25,17.47,18.52,17.47,2.48,0,8.79-.29,10.56-.67v-10.98c-1.29.14-6.93.24-8.41.24-5.49,0-7.54-2.15-7.54-6.87Z"/><path class="cls-1" d="m69.89,182.23c-5.39,0-10.59,2.67-13.89,6.59v-5.44h-13.12v49.44h13.12v-32.16c2.2-3.48,6.44-6.82,10.69-6.82,6.06,0,9.83,4.34,9.83,9.83v29.16h13.12v-30.45c0-11.98-8.16-20.14-19.76-20.14Z"/><path class="cls-1" d="m308.08,202.8c-5.53-1.14-7.87-3.29-7.87-5.91s2.58-4.1,6.15-4.1c3.77,0,6.92,1.81,10.11,4.44l6.3-8.2c-4.39-3.91-10.68-6.73-17.55-6.73-10.73,0-17.84,6.11-17.84,14.4s5.34,13.64,16.07,15.84c6.39,1.29,8.49,3.1,8.49,6.06s-2.72,4.91-7.25,4.91c-4.96,0-9.49-2.38-12.54-5.87l-6.58,8.16c4.48,5.1,11.88,8.2,20.13,8.2,11.78,0,19.08-6.53,19.08-15.26s-5.25-13.59-16.69-15.93Z"/><path class="cls-1" d="m384.69,207.29c0-13.78-10.78-24.99-25.9-24.99s-26.85,11.4-26.85,25.85,11.21,25.85,27.62,25.85c8.78,0,16.41-3.05,21.84-8.97l-7.87-7.63c-3.82,3.77-8.68,6.15-14.03,6.15-7.44,0-13.16-4.63-14.31-11.49h38.92c.33-1.34.57-3.24.57-4.77Zm-39.16-4.58c1.76-6.01,6.96-9.97,13.16-9.97s11.07,4.1,12.5,9.97h-25.66Z"/><rect class="cls-1" x="264.35" y="183.44" width="13.12" height="49.41"/><polygon class="cls-1" points="181.53 183.37 191.24 230.25 191.78 232.92 218.71 220.02 245.63 232.92 246.17 230.25 255.88 183.37 218.71 215.03 181.53 183.37"/></svg>