<?xml version="1.0" encoding="UTF-8"?><svg id="Layer_1" xmlns="http://www.w3.org/2000/svg" xmlns:xlink="http://www.w3.org/1999/xlink" viewBox="0 0 400 400"><defs><style>.cls-1{fill:url(#linear-gradient);}.cls-2{fill:#194b9b;}.cls-3{fill:url(#linear-gradient-3);}.cls-4{fill:url(#linear-gradient-4);}.cls-5{fill:url(#linear-gradient-2);}.cls-6{fill:url(#linear-gradient-5);}</style><linearGradient id="linear-gradient" x1="50.29" y1="151.63" x2="102.91" y2="242.77" gradientUnits="userSpaceOnUse"><stop offset="0" stop-color="#2471e9"/><stop offset="1" stop-color="#174894"/></linearGradient><linearGradient id="linear-gradient-2" x1="175.31" y1="158.19" x2="143.06" y2="112.2" gradientTransform="translate(14.62 60.78) rotate(4.44)" gradientUnits="userSpaceOnUse"><stop offset=".36" stop-color="#2471e9"/><stop offset="1" stop-color="#174894"/></linearGradient><linearGradient id="linear-gradient-3" x1="-802.68" y1="161.74" x2="-834.05" y2="117" gradientTransform="translate(981.85 135.85) rotate(4.44)" gradientUnits="userSpaceOnUse"><stop offset="0" stop-color="#174894"/><stop offset=".64" stop-color="#2471e9"/></linearGradient><linearGradient id="linear-gradient-4" x1="-1715.32" y1="304.94" x2="-1747.57" y2="258.95" gradientTransform="translate(-1536.6 60.78) rotate(175.56) scale(1 -1)" xlink:href="#linear-gradient-2"/><linearGradient id="linear-gradient-5" x1="-2694.54" y1="306.73" x2="-2725.91" y2="261.99" gradientTransform="translate(-2503.83 135.85) rotate(175.56) scale(1 -1)" xlink:href="#linear-gradient-3"/></defs><path class="cls-1" d="m47.38,163.64v72.48h-14.7v-72.48h14.7Zm16.84,55.47c3.31,3.78,8.23,6.37,13.61,6.37,4.92,0,7.87-2.07,7.87-5.33s-2.28-5.18-9.21-6.57c-11.65-2.38-17.45-8.28-17.45-17.19s7.72-15.63,19.36-15.63c7.46,0,14.29,3.05,19.05,7.3l-6.83,8.9c-3.47-2.85-6.88-4.81-10.98-4.81s-6.68,1.71-6.68,4.45,2.54,5.18,8.54,6.42c12.43,2.54,18.12,8.23,18.12,17.29s-7.92,16.57-20.71,16.57c-8.96,0-16.98-3.37-21.85-8.9l7.14-8.85Zm57.36-2.07c0,5.13,2.23,7.46,8.18,7.46,1.6,0,7.73-.1,9.12-.26v11.91c-1.91.41-8.76.72-11.45.72-13.31,0-20.09-6.37-20.09-18.95v-45.33l14.24-6.14v15.53h12.63l-3.22,12.37h-9.41v22.68Z"/><rect class="cls-2" x="236.72" y="181.98" width="14.24" height="53.64"/><path class="cls-2" d="m266.89,219.1c3.31,3.78,8.23,6.37,13.62,6.37,4.92,0,7.87-2.07,7.87-5.33s-2.28-5.18-9.22-6.57c-11.65-2.38-17.45-8.28-17.45-17.19s7.71-15.63,19.36-15.63c7.46,0,14.29,3.05,19.05,7.3l-6.83,8.9c-3.47-2.85-6.89-4.81-10.98-4.81s-6.68,1.71-6.68,4.45,2.54,5.18,8.54,6.42c12.43,2.54,18.12,8.23,18.12,17.29s-7.92,16.57-20.71,16.57c-8.96,0-16.98-3.37-21.85-8.9l7.14-8.85Z"/><path class="cls-2" d="m339.99,225.52c5.8,0,11.08-2.59,15.22-6.68l8.54,8.28c-5.9,6.42-14.19,9.73-23.71,9.73-17.81,0-29.97-12.37-29.97-28.06s12.53-28.06,29.15-28.06,28.11,12.17,28.11,27.13c0,1.66-.26,3.73-.62,5.18h-42.25c1.24,7.46,7.46,12.48,15.53,12.48Zm-15.17-22.62h27.85c-1.55-6.37-6.63-10.82-13.56-10.82s-12.37,4.3-14.29,10.82Z"/><polygon class="cls-5" points="191.24 219.74 157.94 235.69 147.48 183.83 146.82 181.91 191.24 219.74"/><polygon class="cls-3" points="175.9 227.07 157.95 235.67 146.82 181.91 175.9 227.07"/><polygon class="cls-4" points="183.1 219.74 216.39 235.69 226.85 183.83 227.52 181.91 183.1 219.74"/><polygon class="cls-6" points="198.44 227.07 216.38 235.67 227.52 181.91 198.44 227.07"/></svg>